<?xml version="1.0" ?><!DOCTYPE svg  PUBLIC '-//W3C//DTD SVG 1.1//EN'  'http://www.w3.org/Graphics/SVG/1.1/DTD/svg11.dtd'><svg enable-background="new 0 0 800 800" height="800px" id="GUIDE" version="1.1" viewBox="0 0 800 800" width="800px" xml:space="preserve" xmlns="http://www.w3.org/2000/svg" xmlns:cc="http://creativecommons.org/ns#" xmlns:dc="http://purl.org/dc/elements/1.1/" xmlns:inkscape="http://www.inkscape.org/namespaces/inkscape" xmlns:rdf="http://www.w3.org/1999/02/22-rdf-syntax-ns#" xmlns:sodipodi="http://sodipodi.sourceforge.net/DTD/sodipodi-0.dtd" xmlns:svg="http://www.w3.org/2000/svg" xmlns:xlink="http://www.w3.org/1999/xlink"><path d="M466.858,333.141c-46.849-46.848-109.142-72.65-175.396-72.65c-55.016,0-107.264,17.842-150.242,50.7  c-0.636,0.44-1.245,0.911-1.819,1.422c-8.117,6.328-15.94,13.134-23.334,20.528c-46.851,46.853-72.652,109.142-72.652,175.396  c0,66.259,25.801,128.544,72.652,175.397c46.849,46.851,109.138,72.649,175.396,72.649c55.051,0,107.332-17.866,150.327-50.766  c0.631-0.438,1.245-0.903,1.824-1.427c8.088-6.307,15.878-13.089,23.244-20.458c33.577-33.579,56.271-75.104,66.474-120.319  c0.737-1.854,1.152-3.782,1.281-5.72c3.228-16.076,4.896-32.588,4.896-49.358C539.509,442.282,513.707,379.993,466.858,333.141z   M287.263,298.475c0.065,1.142,0.12,2.284,0.12,3.432c0,33.206-27.014,60.218-60.219,60.218c-21.389,0-40.694-11.208-51.445-28.893  C207.843,311.951,246.117,299.289,287.263,298.475z M430.239,666.175c-12.048-11.247-18.982-26.912-18.982-43.896  c0-33.206,27.016-60.219,60.217-60.219c7.629,0,15.078,1.426,22.041,4.165C482.313,605.402,460.022,639.927,430.239,666.175z   M500.648,528.612c-9.369-2.915-19.181-4.431-29.176-4.431c-54.089,0-98.094,44.008-98.094,98.098  c0,24.834,9.623,48.557,26.084,66.474c-31.582,19-68.533,29.955-108.001,29.955c-115.89,0-210.171-94.284-210.171-210.172  c0-59.491,24.891-113.25,64.753-151.522c17.924,26.429,47.971,42.989,81.119,42.989c54.089,0,98.095-44.008,98.095-98.097  c0-0.265-0.024-0.525-0.027-0.789c99.885,16.205,176.4,103.029,176.4,207.419C501.632,515.311,501.279,522,500.648,528.612z" fill="#041C3F"/><g><path d="M737.643,248.897c4.852,0,9.689,1.847,13.395,5.544c7.396,7.397,7.396,19.387,0,26.784L603.249,429.01   c-7.392,7.396-19.385,7.396-26.78,0c-7.396-7.396-7.396-19.387,0-26.783l147.783-147.785   C727.951,250.744,732.797,248.897,737.643,248.897z" fill="#041C3F"/></g><g><path d="M737.643,43.416c4.852,0,9.689,1.849,13.395,5.548c7.396,7.396,7.396,19.39,0,26.784l-215.49,215.486   c-7.396,7.396-19.386,7.396-26.781,0c-7.396-7.397-7.396-19.387,0-26.785L724.252,48.964   C727.951,45.268,732.797,43.416,737.643,43.416z" fill="#041C3F"/></g><g><path d="M532.165,43.416c4.849,0,9.694,1.849,13.392,5.551c7.396,7.396,7.396,19.387,0,26.781L397.771,223.529   c-7.396,7.396-19.384,7.396-26.781,0c-7.396-7.397-7.396-19.388,0-26.785l147.785-147.78   C522.472,45.268,527.32,43.416,532.165,43.416z" fill="#041C3F"/></g><path d="M227.164,488.611c-41.56,0-75.369,33.811-75.369,75.37c0,41.557,33.809,75.367,75.369,75.367  c41.558,0,75.37-33.812,75.37-75.367C302.534,522.422,268.722,488.611,227.164,488.611z M227.164,601.475  c-20.673,0-37.494-16.819-37.494-37.492c0-20.676,16.82-37.494,37.494-37.494s37.494,16.818,37.494,37.494  C264.657,584.654,247.837,601.475,227.164,601.475z" fill="#041C3F"/></svg>