<svg xmlns="http://www.w3.org/2000/svg" xmlns:xlink="http://www.w3.org/1999/xlink" xml:space="preserve" version="1.1" style="shape-rendering:geometricPrecision;text-rendering:geometricPrecision;image-rendering:optimizeQuality;" viewBox="0 0 847 1058.75" x="0px" y="0px" fill-rule="evenodd" clip-rule="evenodd"><defs><style type="text/css">
   
    .fil0 {fill:black}
   
  </style></defs><g><path class="fil0" d="M423 7c230,0 416,187 416,416 0,230 -186,416 -416,416 -229,0 -416,-186 -416,-416 0,-229 187,-416 416,-416zm0 34c212,0 383,171 383,382 0,212 -171,383 -383,383 -211,0 -382,-171 -382,-383 0,-211 171,-382 382,-382z"/><path class="fil0" d="M250 220c84,0 152,51 152,112 0,62 -68,112 -152,112 -84,0 -152,-50 -152,-112 0,-61 68,-112 152,-112zm0 30c68,0 122,37 122,82 0,46 -54,83 -122,83 -68,0 -123,-37 -123,-83 0,-45 55,-82 123,-82z"/><path class="fil0" d="M597 220c84,0 152,51 152,112 0,62 -68,112 -152,112 -84,0 -152,-50 -152,-112 0,-61 68,-112 152,-112zm0 30c67,0 122,37 122,82 0,46 -55,83 -122,83 -68,0 -123,-37 -123,-83 0,-45 55,-82 123,-82z"/><path class="fil0" d="M659 481c24,29 39,63 39,101 0,134 -161,196 -275,196 -113,0 -274,-62 -274,-196 0,-38 15,-72 39,-101l8 -10 67 0 6 4c45,29 102,42 154,42 53,0 109,-13 154,-42l7 -4 66 0 9 10zm-21 17c20,25 32,54 32,84 0,93 -110,169 -247,169 -136,0 -246,-76 -246,-169 0,-30 11,-59 32,-84l45 0c45,29 104,46 169,46 66,0 125,-17 169,-46l46 0z"/><circle class="fil0" cx="597" cy="378" r="31"/><circle class="fil0" cx="250" cy="287" r="31"/></g><text x="0" y="862" fill="#000000" font-size="5px" font-weight="bold" font-family="'Helvetica Neue', Helvetica, Arial-Unicode, Arial, Sans-serif">Created by sumhi_icon</text><text x="0" y="867" fill="#000000" font-size="5px" font-weight="bold" font-family="'Helvetica Neue', Helvetica, Arial-Unicode, Arial, Sans-serif">from the Noun Project</text></svg>