<?xml version="1.0" ?><svg id="Layer_1_1_" style="enable-background:new 0 0 64 64;" version="1.1" viewBox="0 0 64 64" xml:space="preserve" xmlns="http://www.w3.org/2000/svg" xmlns:xlink="http://www.w3.org/1999/xlink"><g><path d="M48.454,12H15.546L0.651,29.022L32,62.462l31.349-33.439L48.454,12z M59.796,28H57v2h2.692   L35.034,56.302L48.61,30H55v-2h-6.446l-8.75-14h7.742L59.796,28z M15.39,30l13.575,26.302L4.308,30H15.39z M17.15,29.047L26.554,14   h10.891l9.404,15.047L32,57.82L17.15,29.047z M16.454,14h7.742l-8.75,14H4.204L16.454,14z" style="fill:#3F3A34;"/><path d="M40,29v-1.5c0-3.033-2.467-5.5-5.5-5.5H33v-2h-2v2h-1.5c-3.033,0-5.5,2.467-5.5,5.5   s2.467,5.5,5.5,5.5h5c1.93,0,3.5,1.57,3.5,3.5S36.43,40,34.5,40h-5c-1.93,0-3.5-1.57-3.5-3.5V35h-2v1.5c0,3.033,2.467,5.5,5.5,5.5   H31v2h2v-2h1.5c3.033,0,5.5-2.467,5.5-5.5S37.533,31,34.5,31h-5c-1.93,0-3.5-1.57-3.5-3.5s1.57-3.5,3.5-3.5h5   c1.93,0,3.5,1.57,3.5,3.5V29H40z" style="fill:#3F3A34;"/><rect height="2" style="fill:#3F3A34;" width="2" x="5" y="7"/><rect height="2" style="fill:#3F3A34;" transform="matrix(0.7071 -0.7071 0.7071 0.7071 -5.5564 4.929)" width="2" x="2.172" y="8.171"/><rect height="2" style="fill:#3F3A34;" width="2" x="1" y="11"/><rect height="2" style="fill:#3F3A34;" transform="matrix(0.7071 -0.7071 0.7071 0.7071 -9.5563 6.5858)" width="2" x="2.171" y="13.828"/><rect height="2" style="fill:#3F3A34;" width="2" x="5" y="15"/><rect height="2" style="fill:#3F3A34;" transform="matrix(0.7071 -0.7071 0.7071 0.7071 -7.8995 10.5857)" width="2" x="7.828" y="13.828"/><rect height="2" style="fill:#3F3A34;" width="2" x="9" y="11"/><rect height="2" style="fill:#3F3A34;" transform="matrix(0.7071 -0.7071 0.7071 0.7071 -3.8996 8.9289)" width="2" x="7.828" y="8.172"/><rect height="2" style="fill:#3F3A34;" width="2" x="50" y="1"/><rect height="2" style="fill:#3F3A34;" transform="matrix(0.7071 -0.7071 0.7071 0.7071 11.8665 34.9914)" width="2" x="47.172" y="2.171"/><rect height="2" style="fill:#3F3A34;" width="2" x="46" y="5"/><rect height="2" style="fill:#3F3A34;" transform="matrix(0.7071 -0.7071 0.7071 0.7071 7.8665 36.6483)" width="2" x="47.171" y="7.828"/><rect height="2" style="fill:#3F3A34;" width="2" x="50" y="9"/><rect height="2" style="fill:#3F3A34;" transform="matrix(0.7071 -0.7071 0.7071 0.7071 9.5234 40.6482)" width="2" x="52.828" y="7.828"/><rect height="2" style="fill:#3F3A34;" width="2" x="54" y="5"/><rect height="2" style="fill:#3F3A34;" transform="matrix(0.7071 -0.7071 0.7071 0.7071 13.5233 38.9914)" width="2" x="52.828" y="2.172"/><rect height="2" style="fill:#3F3A34;" width="2" x="59" y="13"/><rect height="2" style="fill:#3F3A34;" width="2" x="59" y="17"/><rect height="2" style="fill:#3F3A34;" width="2" x="61" y="15"/><rect height="2" style="fill:#3F3A34;" width="2" x="57" y="15"/><rect height="2" style="fill:#3F3A34;" width="2" x="21" y="1"/><rect height="2" style="fill:#3F3A34;" width="2" x="21" y="5"/><rect height="2" style="fill:#3F3A34;" width="2" x="23" y="3"/><rect height="2" style="fill:#3F3A34;" width="2" x="19" y="3"/><rect height="2" style="fill:#3F3A34;" width="2" x="31" y="27"/><rect height="2" style="fill:#3F3A34;" width="2" x="31" y="35"/></g></svg>