<svg xmlns="http://www.w3.org/2000/svg" xmlns:xlink="http://www.w3.org/1999/xlink" version="1.1" x="0px" y="0px" viewBox="0 0 100 125" enable-background="new 0 0 100 100" xml:space="preserve"><path d="M67.966,98.286H17.718l2.625-3.255c1.861-2.31,3.643-4.929,5.29-7.415c2.412-3.641,3.24-8.477,2.46-14.374  c-0.3-2.265-1.977-4.779-3.457-6.997l-1.121-1.698c-5.06-7.701-10.794-16.429-10.523-29.428  c0.248-11.895,8.208-20.544,12.932-24.642c5.92-5.137,15.73-8.204,26.242-8.204c11.302,0,21.185,3.575,26.437,9.562  c4.833,5.511,7.918,13.032,8.464,20.634c0.366,5.106-0.245,6.743-1.786,10.276c-0.426,1.088,2.397,5.446,3.754,7.541  c2.954,4.561,5.745,8.869,2.968,11.473c-1.355,1.323-2.744,1.842-3.969,2.3c-0.634,0.237-1.236,0.462-1.835,0.801  c0.017,0.194,0.046,0.43,0.069,0.624c0.146,1.187,0.367,2.979-0.222,5.173c-0.425,1.58-1.038,2.696-1.579,3.682  c-0.489,0.892-0.877,1.597-1.048,2.509c0.009,0.091,0.134,0.343,0.225,0.527c0.485,0.98,1.218,2.461,0.642,5.199  c-0.915,4.349-4.174,5.424-7.56,5.939c-1.051,0.158-2.088,0.235-3.173,0.235c-1.664,0-3.218-0.185-4.72-0.364  c-1.25-0.149-2.54-0.303-3.934-0.356c-0.392,0.992-0.087,4.442,1.465,7.305L67.966,98.286z M25.917,94.286h35.688  c-0.972-3.045-1.236-6.489-0.065-8.455c0.685-1.151,1.829-1.812,3.139-1.812c1.741,0.049,3.208,0.225,4.627,0.394  c2.348,0.28,4.6,0.48,6.819,0.146c3.25-0.494,3.914-1.232,4.245-2.808c0.291-1.383,0.037-1.895-0.312-2.604  c-0.35-0.706-0.828-1.674-0.571-3.04c0.289-1.537,0.892-2.634,1.474-3.694c0.475-0.863,0.922-1.68,1.222-2.794  c0.388-1.44,0.243-2.612,0.115-3.646c-0.154-1.258-0.412-3.347,1.581-4.389c1.004-0.618,1.932-0.965,2.753-1.271  c1.015-0.38,1.76-0.658,2.506-1.35c0.012-1.143-2.151-4.481-3.461-6.503c-2.723-4.203-5.294-8.172-4.119-11.182l0.057-0.133  c1.326-3.04,1.772-4.063,1.462-8.39c-0.484-6.75-3.211-13.413-7.481-18.282c-4.503-5.135-13.262-8.2-23.429-8.2  c-9.576,0-18.406,2.701-23.621,7.225c-5.158,4.474-11.349,11.871-11.554,21.703c-0.245,11.757,4.896,19.582,9.867,27.149  l1.106,1.675c1.721,2.58,3.672,5.505,4.094,8.692c0.91,6.883-0.129,12.639-3.091,17.107C27.996,91.291,26.978,92.805,25.917,94.286z  "/><path d="M64.314,37.773h-0.931c-0.929,1.421-2.531,2.363-4.354,2.363H42.368c-1.822,0-3.424-0.942-4.354-2.363h-0.93  c-2.612,0-4.729,2.117-4.729,4.729s2.118,4.729,4.729,4.729h27.229c2.611,0,4.729-2.117,4.729-4.729S66.927,37.773,64.314,37.773z"/><path d="M39.242,37.064c0.179,0.263,0.393,0.5,0.63,0.71c0.667,0.587,1.538,0.945,2.496,0.945h16.663  c0.957,0,1.829-0.358,2.496-0.945c0.237-0.209,0.451-0.446,0.63-0.709c0.15-0.221,0.277-0.459,0.379-0.71  c0.178-0.438,0.278-0.916,0.278-1.419c-0.001-2.09-1.694-3.784-3.784-3.784h-1.814c-0.754,1.715-2.466,2.915-4.454,2.915h-0.115  h-0.129l-3.6,0.003c-2.019-0.007-3.763-0.705-4.908-1.967c-0.266-0.293-0.49-0.613-0.677-0.95h-0.963  c-2.09,0-3.783,1.693-3.783,3.783c0,0.502,0.1,0.98,0.277,1.419C38.965,36.606,39.091,36.843,39.242,37.064z"/><path d="M44.561,30.442c0.141,0.255,0.31,0.491,0.51,0.709c0.836,0.918,2.174,1.493,3.852,1.499l3.596-0.003  c0.086,0,0.168,0,0.245,0c1.18,0,2.219-0.593,2.84-1.495c0.15-0.22,0.275-0.459,0.372-0.71c0.088-0.226,0.151-0.463,0.19-0.709  c0.026-0.174,0.045-0.352,0.045-0.534c-0.002-1.902-1.545-3.446-3.449-3.446c-0.682,0-0.346,0.052-1.021,0.103  c-0.156,0.012-0.333,0.025-0.521,0.038c0,0,0.492-0.082,0.776-0.441c1.162-1.479,0.531-4.353-1.078-5.674  c-0.434-0.357-0.659-0.513-0.784-0.513c-0.299,0-0.033,0.888-0.705,2.05c-1.526,2.644-4.896,2.563-5.306,6.936  c-0.049,0.523,0.006,1.021,0.143,1.482C44.341,29.98,44.438,30.217,44.561,30.442z"/><text x="0" y="115" fill="#000000" font-size="5px" font-weight="bold" font-family="'Helvetica Neue', Helvetica, Arial-Unicode, Arial, Sans-serif">Created by corpus delicti</text><text x="0" y="120" fill="#000000" font-size="5px" font-weight="bold" font-family="'Helvetica Neue', Helvetica, Arial-Unicode, Arial, Sans-serif">from the Noun Project</text></svg>