<?xml version="1.0" ?><!DOCTYPE svg  PUBLIC '-//W3C//DTD SVG 1.1//EN'  'http://www.w3.org/Graphics/SVG/1.1/DTD/svg11.dtd'><svg enable-background="new 0 0 91 91" height="91px" id="Layer_1" version="1.1" viewBox="0 0 91 91" width="91px" xml:space="preserve" xmlns="http://www.w3.org/2000/svg" xmlns:xlink="http://www.w3.org/1999/xlink"><g><g><g><g><path d="M76.164,11.414c-1.389,0-2.514,1.125-2.514,2.514v3.222c0,1.388,1.125,2.513,2.514,2.513      c1.387,0,2.512-1.125,2.512-2.513v-3.222C78.676,12.539,77.551,11.414,76.164,11.414z"/><path d="M76.164,32.092c1.387,0,2.512-1.125,2.512-2.512v-3.221c0-1.389-1.125-2.514-2.512-2.514      c-1.389,0-2.514,1.125-2.514,2.514v3.221C73.65,30.967,74.775,32.092,76.164,32.092z"/><path d="M68.336,24.267h3.225c1.389,0,2.514-1.125,2.514-2.513s-1.125-2.513-2.514-2.513h-3.225      c-1.387,0-2.512,1.125-2.512,2.513S66.949,24.267,68.336,24.267z"/><path d="M80.77,24.267h3.223c1.389,0,2.514-1.125,2.514-2.513s-1.125-2.513-2.514-2.513H80.77c-1.387,0-2.512,1.125-2.512,2.513      S79.383,24.267,80.77,24.267z"/><path d="M17,60.992V57.77c0-1.389-1.125-2.514-2.512-2.514c-1.389,0-2.514,1.125-2.514,2.514v3.223      c0,1.389,1.125,2.514,2.514,2.514C15.875,63.506,17,62.381,17,60.992z"/><path d="M11.974,73.422c0,1.389,1.125,2.514,2.514,2.514c1.387,0,2.512-1.125,2.512-2.514v-3.223      c0-1.389-1.125-2.514-2.512-2.514c-1.389,0-2.514,1.125-2.514,2.514V73.422z"/><path d="M4.146,65.598c0,1.387,1.125,2.512,2.514,2.512h3.223c1.387,0,2.512-1.125,2.512-2.512c0-1.389-1.125-2.514-2.512-2.514      H6.66C5.271,63.084,4.146,64.209,4.146,65.598z"/><path d="M19.091,68.109h3.223c1.387,0,2.512-1.125,2.512-2.512c0-1.389-1.125-2.514-2.512-2.514h-3.223      c-1.389,0-2.514,1.125-2.514,2.514C16.578,66.984,17.703,68.109,19.091,68.109z"/><path d="M38.628,63.246c-1.162,0.25-1.988,1.281-1.982,2.469c0.008,1.188,0.844,2.209,2.008,2.447l17.243,3.539l3.586,17.105      c0.244,1.164,1.27,1.998,2.459,1.998c0.002,0,0.004,0,0.006,0c1.191-0.002,2.217-0.842,2.455-2.01l3.527-17.254l17.117-3.572      c1.168-0.244,2.002-1.275,2-2.467c-0.004-1.193-0.846-2.219-2.014-2.455l-17.273-3.5l-3.549-17.138      c-0.24-1.164-1.264-2-2.453-2.004c-0.002,0-0.004,0-0.006,0c-1.188,0-2.213,0.83-2.459,1.992l-3.637,17.166L38.628,63.246z       M60.236,62.195l1.486-7.021l1.453,7.016c0.203,0.986,0.977,1.754,1.961,1.953l6.924,1.402l-6.775,1.416      c-0.982,0.205-1.748,0.973-1.949,1.955l-1.426,6.98l-1.434-6.84c-0.205-0.98-0.973-1.744-1.953-1.945l-7.182-1.475l6.967-1.506      C59.275,63.922,60.031,63.164,60.236,62.195z"/><path d="M54.025,22.925l-17.272-3.501L33.205,2.287c-0.24-1.164-1.266-2-2.453-2.003c-0.002,0-0.004,0-0.006,0      c-1.188,0-2.213,0.831-2.459,1.992l-3.635,17.162L7.625,23.125c-1.162,0.251-1.988,1.281-1.982,2.469      c0.008,1.188,0.846,2.209,2.008,2.447l17.242,3.535l3.586,17.111c0.244,1.164,1.27,1.996,2.459,1.996c0.002,0,0.004,0,0.006,0      c1.191-0.002,2.217-0.842,2.455-2.01l3.523-17.256l17.118-3.571c1.168-0.243,2.004-1.274,2-2.467S55.195,23.162,54.025,22.925z       M34.277,26.837c-0.982,0.204-1.748,0.974-1.949,1.957l-1.424,6.972l-1.432-6.834c-0.205-0.98-0.973-1.745-1.953-1.946      l-7.18-1.472l6.965-1.508c0.969-0.21,1.723-0.967,1.928-1.936l1.486-7.017l1.451,7.013c0.203,0.984,0.977,1.754,1.961,1.953      l6.924,1.403L34.277,26.837z"/></g></g></g></g></svg>