<?xml version="1.0" ?><!DOCTYPE svg  PUBLIC '-//W3C//DTD SVG 1.1//EN'  'http://www.w3.org/Graphics/SVG/1.1/DTD/svg11.dtd'><svg enable-background="new 0 0 800 800" height="800px" id="GUIDE" version="1.1" viewBox="0 0 800 800" width="800px" xml:space="preserve" xmlns="http://www.w3.org/2000/svg" xmlns:cc="http://creativecommons.org/ns#" xmlns:dc="http://purl.org/dc/elements/1.1/" xmlns:inkscape="http://www.inkscape.org/namespaces/inkscape" xmlns:rdf="http://www.w3.org/1999/02/22-rdf-syntax-ns#" xmlns:sodipodi="http://sodipodi.sourceforge.net/DTD/sodipodi-0.dtd" xmlns:svg="http://www.w3.org/2000/svg" xmlns:xlink="http://www.w3.org/1999/xlink"><path d="M399.989,219.619c-99.463,0-180.381,80.917-180.381,180.384c0,99.46,80.918,180.384,180.381,180.384  c99.463,0,180.387-80.924,180.387-180.384C580.376,300.537,499.452,219.619,399.989,219.619z M399.989,542.509  c-78.58,0-142.503-63.929-142.503-142.506c0-78.58,63.923-142.506,142.503-142.506c78.579,0,142.509,63.926,142.509,142.506  C542.498,478.58,478.568,542.509,399.989,542.509z" fill="#041C3F"/><path d="M492.396,184.543L416.395,52.897c-3.388-5.858-9.638-9.469-16.404-9.469c-6.763,0-13.018,3.611-16.399,9.469  l-76.422,132.368c-3.988,6.907-3.223,15.568,1.912,21.667c3.671,4.359,9.008,6.741,14.492,6.741c2.186,0,4.392-0.38,6.528-1.161  c22.309-8.2,45.826-12.356,69.889-12.356c24.067,0,47.585,4.157,69.894,12.356c2.339,0.857,4.753,1.229,7.151,1.152  c10.182-0.319,18.338-8.672,18.338-18.928C495.372,190.984,494.279,187.488,492.396,184.543z M399.989,162.278  c-12.641,0-25.161,0.97-37.49,2.895l37.49-64.931l37.488,64.931C425.149,163.248,412.635,162.278,399.989,162.278z" fill="#041C3F"/><path d="M259.611,212.255H107.592c-6.763,0-13.012,3.608-16.399,9.467c-3.381,5.861-3.381,13.08,0,18.939  l76.422,132.367c3.988,6.906,11.87,10.572,19.72,9.177c5.61-1,10.346-4.433,13.088-9.18c1.092-1.894,1.868-3.993,2.256-6.235  c4.053-23.418,12.209-45.861,24.243-66.704c12.034-20.843,27.39-39.131,45.646-54.35c1.912-1.592,3.447-3.501,4.578-5.619  c4.813-8.978,1.655-20.214-7.227-25.344C266.668,212.9,263.096,212.094,259.611,212.255z M194.12,281.147  c-6.32,10.95-11.739,22.274-16.235,33.916l-37.49-64.932h74.98C207.541,259.843,200.445,270.197,194.12,281.147z" fill="#041C3F"/><path d="M167.21,427.706L91.204,559.361c-3.381,5.854-3.381,13.07,0,18.933s9.636,9.473,16.399,9.473h152.85  c7.97,0,15.087-4.992,17.803-12.492c1.944-5.358,1.338-11.171-1.404-15.918c-1.092-1.896-2.529-3.616-4.271-5.075  c-18.256-15.219-33.612-33.502-45.646-54.349c-12.034-20.845-20.19-43.284-24.243-66.702c-0.426-2.459-1.316-4.736-2.584-6.774  c-5.364-8.658-16.677-11.542-25.56-6.413C171.297,421.916,168.816,424.609,167.21,427.706z M194.13,518.872  c6.32,10.947,13.421,21.304,21.255,31.017h-74.98l37.49-64.935C182.391,496.596,187.81,507.919,194.13,518.872z" fill="#041C3F"/><path d="M307.6,615.456l76.007,131.649c3.387,5.86,9.636,9.467,16.404,9.467c6.763,0,13.019-3.605,16.399-9.467  l76.422-132.37c3.987-6.904,3.223-15.568-1.912-21.665c-3.671-4.358-9.008-6.746-14.492-6.746c-2.186,0-4.393,0.383-6.527,1.169  c-22.311,8.194-45.82,12.355-69.89,12.355c-24.069,0-47.585-4.161-69.894-12.355c-2.338-0.863-4.752-1.234-7.15-1.152  c-10.183,0.316-18.338,8.669-18.338,18.929C304.628,609.021,305.721,612.512,307.6,615.456z M400.011,637.722  c12.642,0,25.161-0.967,37.484-2.895l-37.484,64.934l-37.49-64.934C374.85,636.755,387.365,637.722,400.011,637.722z" fill="#041C3F"/><path d="M540.396,587.75h152.009c6.768,0,13.017-3.61,16.402-9.472c3.383-5.862,3.383-13.078,0-18.939  l-76.427-132.37c-3.981-6.903-11.865-10.569-19.715-9.172c-5.61,1-10.346,4.431-13.089,9.178c-1.092,1.891-1.868,3.998-2.256,6.238  c-4.054,23.412-12.209,45.858-24.243,66.698c-12.034,20.846-27.396,39.134-45.646,54.354c-1.911,1.596-3.44,3.508-4.576,5.621  c-4.813,8.976-1.655,20.211,7.227,25.341C533.331,587.1,536.904,587.908,540.396,587.75z M605.881,518.85  c6.32-10.945,11.739-22.271,16.234-33.91l37.489,64.934h-74.979C592.459,540.154,599.555,529.803,605.881,518.85z" fill="#041C3F"/><path d="M632.789,372.291l76.007-131.646c3.387-5.859,3.382-13.078,0-18.939c-3.381-5.858-9.636-9.467-16.397-9.467  H539.548c-7.97,0-15.088,4.99-17.803,12.488c-1.939,5.359-1.338,11.176,1.404,15.923c1.093,1.893,2.528,3.616,4.271,5.072  c18.256,15.219,33.611,33.505,45.646,54.35c12.033,20.84,20.189,43.283,24.249,66.704c0.42,2.453,1.311,4.732,2.577,6.771  c5.364,8.655,16.673,11.545,25.561,6.413C628.698,378.087,631.184,375.394,632.789,372.291z M605.869,281.133  c-6.32-10.95-13.421-21.307-21.249-31.02h74.975l-37.49,64.932C617.608,303.404,612.189,292.083,605.869,281.133z" fill="#041C3F"/></svg>